<?xml version="1.0" encoding="UTF-8"?><svg xmlns="http://www.w3.org/2000/svg" xmlns:xlink="http://www.w3.org/1999/xlink" fill-opacity="1" color-rendering="auto" color-interpolation="auto" text-rendering="auto" stroke="black" stroke-linecap="square" width="300" stroke-miterlimit="10" shape-rendering="auto" stroke-opacity="1" fill="black" stroke-dasharray="none" font-weight="normal" stroke-width="1" height="492" font-family="'Dialog'" font-style="normal" stroke-linejoin="miter" font-size="12px" stroke-dashoffset="0" image-rendering="auto">
  <!--Generated by ySVG 2.5-->
  <defs id="genericDefs"/>
  <g>
    <defs id="defs1">
      <linearGradient x1="446" gradientUnits="userSpaceOnUse" x2="597" y1="534" y2="612" id="linearGradient1" spreadMethod="reflect">
        <stop stop-opacity="1" stop-color="rgb(232,238,247)" offset="0%"/>
        <stop stop-opacity="1" stop-color="rgb(183,201,227)" offset="100%"/>
      </linearGradient>
      <clipPath clipPathUnits="userSpaceOnUse" id="clipPath1">
        <path d="M0 0 L300 0 L300 492 L0 492 L0 0 Z"/>
      </clipPath>
      <clipPath clipPathUnits="userSpaceOnUse" id="clipPath2">
        <path d="M371 135 L671 135 L671 627 L371 627 L371 135 Z"/>
      </clipPath>
    </defs>
    <g fill="white" text-rendering="geometricPrecision" shape-rendering="geometricPrecision" transform="translate(-371,-135)" stroke="white">
      <rect x="371" width="300" height="492" y="135" clip-path="url(#clipPath2)" stroke="none"/>
    </g>
    <g text-rendering="geometricPrecision" stroke-miterlimit="1.45" shape-rendering="geometricPrecision" transform="matrix(1,0,0,1,-371,-135)" stroke-linecap="butt">
      <rect x="386" y="263" clip-path="url(#clipPath2)" fill="none" width="270" rx="4" ry="4" height="224"/>
      <text x="392" xml:space="preserve" y="280.1387" clip-path="url(#clipPath2)" font-family="sans-serif" stroke="none">Quarkus application</text>
    </g>
    <g fill="rgb(255,204,0)" text-rendering="geometricPrecision" shape-rendering="geometricPrecision" transform="matrix(1,0,0,1,-371,-135)" stroke="rgb(255,204,0)">
      <rect x="406" y="302" clip-path="url(#clipPath2)" width="231" rx="4" ry="4" height="55" stroke="none"/>
    </g>
    <g text-rendering="geometricPrecision" stroke-miterlimit="1.45" shape-rendering="geometricPrecision" transform="matrix(1,0,0,1,-371,-135)" stroke-linecap="butt">
      <rect x="406" y="302" clip-path="url(#clipPath2)" fill="none" width="231" rx="4" ry="4" height="55"/>
      <text x="491.541" xml:space="preserve" y="333.6543" clip-path="url(#clipPath2)" font-family="sans-serif" stroke="none">REST APIs</text>
    </g>
    <g fill="rgb(255,204,0)" text-rendering="geometricPrecision" shape-rendering="geometricPrecision" transform="matrix(1,0,0,1,-371,-135)" stroke="rgb(255,204,0)">
      <rect x="406" y="357" clip-path="url(#clipPath2)" width="231" rx="4" ry="4" height="55" stroke="none"/>
    </g>
    <g text-rendering="geometricPrecision" stroke-miterlimit="1.45" shape-rendering="geometricPrecision" transform="matrix(1,0,0,1,-371,-135)" stroke-linecap="butt">
      <rect x="406" y="357" clip-path="url(#clipPath2)" fill="none" width="231" rx="4" ry="4" height="55"/>
      <text x="466.7441" xml:space="preserve" y="388.6543" clip-path="url(#clipPath2)" font-family="sans-serif" stroke="none">lighty.io controller</text>
    </g>
    <g fill="rgb(255,204,0)" text-rendering="geometricPrecision" shape-rendering="geometricPrecision" transform="matrix(1,0,0,1,-371,-135)" stroke="rgb(255,204,0)">
      <rect x="406" y="412" clip-path="url(#clipPath2)" width="231" rx="4" ry="4" height="55" stroke="none"/>
    </g>
    <g text-rendering="geometricPrecision" stroke-miterlimit="1.45" shape-rendering="geometricPrecision" transform="matrix(1,0,0,1,-371,-135)" stroke-linecap="butt">
      <rect x="406" y="412" clip-path="url(#clipPath2)" fill="none" width="231" rx="4" ry="4" height="55"/>
      <text x="479.2539" xml:space="preserve" y="443.6543" clip-path="url(#clipPath2)" font-family="sans-serif" stroke="none">NETCONF SBP</text>
    </g>
    <g fill="url(#linearGradient1)" text-rendering="geometricPrecision" shape-rendering="geometricPrecision" transform="matrix(1,0,0,1,-371,-135)" stroke="url(#linearGradient1)">
      <path d="M464.875 575.34 C446 553.5 464.875 534 495.83 548.04 C495.83 534 547.17 534 547.17 548.04 C578.125 534 597 553.5 578.125 570.66 C597 592.5 578.125 612 554.72 597.96 C547.17 612 495.83 612 503.38 597.96 C464.875 612 446 592.5 464.875 575.34 Z" stroke="none" clip-path="url(#clipPath2)"/>
    </g>
    <g text-rendering="geometricPrecision" stroke-miterlimit="1.45" shape-rendering="geometricPrecision" transform="matrix(1,0,0,1,-371,-135)" stroke-linecap="butt">
      <path fill="none" d="M464.875 575.34 C446 553.5 464.875 534 495.83 548.04 C495.83 534 547.17 534 547.17 548.04 C578.125 534 597 553.5 578.125 570.66 C597 592.5 578.125 612 554.72 597.96 C547.17 612 495.83 612 503.38 597.96 C464.875 612 446 592.5 464.875 575.34 Z" clip-path="url(#clipPath2)"/>
      <text x="472.5303" xml:space="preserve" y="577.1543" clip-path="url(#clipPath2)" font-family="sans-serif" stroke="none">Netconf Devices</text>
    </g>
    <g fill="silver" text-rendering="geometricPrecision" shape-rendering="geometricPrecision" transform="matrix(1,0,0,1,-371,-135)" stroke="silver">
      <rect x="406" y="150" clip-path="url(#clipPath2)" width="231" rx="4" ry="4" height="34" stroke="none"/>
    </g>
    <g text-rendering="geometricPrecision" stroke-miterlimit="1.45" shape-rendering="geometricPrecision" transform="matrix(1,0,0,1,-371,-135)" stroke-linecap="butt">
      <rect x="406" y="150" clip-path="url(#clipPath2)" fill="none" width="231" rx="4" ry="4" height="34"/>
      <text x="485.6641" xml:space="preserve" y="171.1543" clip-path="url(#clipPath2)" font-family="sans-serif" stroke="none">Web Clients</text>
      <path fill="none" d="M521.5 474.9757 L521.5 529.5119" clip-path="url(#clipPath2)"/>
      <path d="M521.5 466.9757 L516.5 478.9757 L521.5 475.9757 L526.5 478.9757 Z" clip-path="url(#clipPath2)" stroke="none"/>
      <path d="M521.5 537.5119 L526.5 525.5119 L521.5 528.5119 L516.5 525.5119 Z" clip-path="url(#clipPath2)" stroke="none"/>
      <text x="468.083" xml:space="preserve" y="504.6543" clip-path="url(#clipPath2)" font-family="sans-serif" stroke="none">Netconf</text>
      <path fill="none" d="M521.5 192.0197 L521.5 293.9738" clip-path="url(#clipPath2)"/>
      <path d="M521.5 184.0197 L516.5 196.0197 L521.5 193.0197 L526.5 196.0197 Z" clip-path="url(#clipPath2)" stroke="none"/>
      <path d="M521.5 301.9738 L526.5 289.9738 L521.5 292.9738 L516.5 289.9738 Z" clip-path="url(#clipPath2)" stroke="none"/>
      <text x="479.1836" xml:space="preserve" y="202.1387" clip-path="url(#clipPath2)" font-family="sans-serif" stroke="none">http</text>
    </g>
  </g>
</svg>
