<?xml version="1.0" encoding="UTF-8"?><svg xmlns="http://www.w3.org/2000/svg" xmlns:xlink="http://www.w3.org/1999/xlink" fill-opacity="1" color-rendering="auto" color-interpolation="auto" text-rendering="auto" stroke="black" stroke-linecap="square" width="469" stroke-miterlimit="10" shape-rendering="auto" stroke-opacity="1" fill="black" stroke-dasharray="none" font-weight="normal" stroke-width="1" height="639" font-family="'Dialog'" font-style="normal" stroke-linejoin="miter" font-size="12px" stroke-dashoffset="0" image-rendering="auto">
  <!--Generated by ySVG 2.5-->
  <defs id="genericDefs"/>
  <g>
    <defs id="defs1">
      <linearGradient x1="663.9167" gradientUnits="userSpaceOnUse" x2="973.0833" y1="679.7083" y2="796.375" id="linearGradient1" spreadMethod="reflect">
        <stop stop-opacity="1" stop-color="rgb(232,238,247)" offset="0%"/>
        <stop stop-opacity="1" stop-color="rgb(183,201,227)" offset="100%"/>
      </linearGradient>
      <clipPath clipPathUnits="userSpaceOnUse" id="clipPath1">
        <path d="M0 0 L469 0 L469 639 L0 639 L0 0 Z"/>
      </clipPath>
      <clipPath clipPathUnits="userSpaceOnUse" id="clipPath2">
        <path d="M584 173 L1053 173 L1053 812 L584 812 L584 173 Z"/>
      </clipPath>
    </defs>
    <g fill="white" text-rendering="geometricPrecision" shape-rendering="geometricPrecision" transform="translate(-584,-173)" stroke="white">
      <rect x="584" width="469" height="639" y="173" clip-path="url(#clipPath2)" stroke="none"/>
    </g>
    <g fill="silver" text-rendering="geometricPrecision" shape-rendering="geometricPrecision" transform="matrix(1,0,0,1,-584,-173)" stroke="silver">
      <rect x="748" y="188" clip-path="url(#clipPath2)" width="141" rx="4" ry="4" height="61" stroke="none"/>
    </g>
    <g text-rendering="geometricPrecision" stroke-miterlimit="1.45" shape-rendering="geometricPrecision" transform="matrix(1,0,0,1,-584,-173)" stroke-linecap="butt">
      <rect x="748" y="188" clip-path="url(#clipPath2)" fill="none" width="141" rx="4" ry="4" height="61"/>
      <text x="767.793" xml:space="preserve" y="222.6543" clip-path="url(#clipPath2)" font-family="sans-serif" stroke="none">Cient application</text>
      <rect x="599" y="313" clip-path="url(#clipPath2)" fill="none" width="439" rx="4" ry="4" height="324.5833"/>
      <text x="605" xml:space="preserve" y="330.1387" clip-path="url(#clipPath2)" font-family="sans-serif" stroke="none">RESTCONF - OpenFlow controller</text>
    </g>
    <g fill="rgb(255,153,0)" text-rendering="geometricPrecision" shape-rendering="geometricPrecision" transform="matrix(1,0,0,1,-584,-173)" stroke="rgb(255,153,0)">
      <rect x="612" y="359" clip-path="url(#clipPath2)" width="413" rx="4" ry="4" height="61" stroke="none"/>
    </g>
    <g text-rendering="geometricPrecision" stroke-miterlimit="1.45" shape-rendering="geometricPrecision" transform="matrix(1,0,0,1,-584,-173)" stroke-linecap="butt">
      <rect x="612" y="359" clip-path="url(#clipPath2)" fill="none" width="413" rx="4" ry="4" height="61"/>
      <text x="786.2148" xml:space="preserve" y="379.6855" clip-path="url(#clipPath2)" font-family="sans-serif" stroke="none">RESTCONF</text>
      <text x="781.3457" xml:space="preserve" y="393.6543" clip-path="url(#clipPath2)" font-family="sans-serif" stroke="none">north-bound</text>
      <text x="799.9434" xml:space="preserve" y="407.623" clip-path="url(#clipPath2)" font-family="sans-serif" stroke="none">plugin</text>
    </g>
    <g fill="rgb(255,153,0)" text-rendering="geometricPrecision" shape-rendering="geometricPrecision" transform="matrix(1,0,0,1,-584,-173)" stroke="rgb(255,153,0)">
      <rect x="612" y="420" clip-path="url(#clipPath2)" width="413" rx="4" ry="4" height="137" stroke="none"/>
    </g>
    <g text-rendering="geometricPrecision" stroke-miterlimit="1.45" shape-rendering="geometricPrecision" transform="matrix(1,0,0,1,-584,-173)" stroke-linecap="butt">
      <rect x="612" y="420" clip-path="url(#clipPath2)" fill="none" width="413" rx="4" ry="4" height="137"/>
      <text x="637.7878" xml:space="preserve" y="464.7168" clip-path="url(#clipPath2)" font-family="sans-serif" stroke="none">lighty.io core</text>
      <text x="653.6989" xml:space="preserve" y="478.6855" clip-path="url(#clipPath2)" font-family="sans-serif" stroke="none">MD-SAL</text>
      <text x="648.1618" xml:space="preserve" y="492.6543" clip-path="url(#clipPath2)" font-family="sans-serif" stroke="none">controller</text>
      <text x="647.5905" xml:space="preserve" y="506.623" clip-path="url(#clipPath2)" font-family="sans-serif" stroke="none">yangtools</text>
      <text x="647.2331" xml:space="preserve" y="520.5918" clip-path="url(#clipPath2)" font-family="sans-serif" stroke="none">clustering</text>
    </g>
    <g fill="rgb(255,153,0)" text-rendering="geometricPrecision" shape-rendering="geometricPrecision" transform="matrix(1,0,0,1,-584,-173)" stroke="rgb(255,153,0)">
      <rect x="612" y="557" clip-path="url(#clipPath2)" width="413" rx="4" ry="4" height="61" stroke="none"/>
    </g>
    <g text-rendering="geometricPrecision" stroke-miterlimit="1.45" shape-rendering="geometricPrecision" transform="matrix(1,0,0,1,-584,-173)" stroke-linecap="butt">
      <rect x="612" y="557" clip-path="url(#clipPath2)" fill="none" width="413" rx="4" ry="4" height="61"/>
      <text x="788.7783" xml:space="preserve" y="577.6855" clip-path="url(#clipPath2)" font-family="sans-serif" stroke="none">OpenFlow</text>
      <text x="780.6865" xml:space="preserve" y="591.6543" clip-path="url(#clipPath2)" font-family="sans-serif" stroke="none">south-bound</text>
      <text x="799.9434" xml:space="preserve" y="605.623" clip-path="url(#clipPath2)" font-family="sans-serif" stroke="none">plugin</text>
    </g>
    <g fill="rgb(153,204,255)" text-rendering="geometricPrecision" shape-rendering="geometricPrecision" transform="matrix(1,0,0,1,-584,-173)" stroke="rgb(153,204,255)">
      <rect x="848.625" y="458" clip-path="url(#clipPath2)" width="131.375" rx="4" ry="4" height="61" stroke="none"/>
    </g>
    <g text-rendering="geometricPrecision" stroke-miterlimit="1.45" shape-rendering="geometricPrecision" transform="matrix(1,0,0,1,-584,-173)" stroke-linecap="butt">
      <rect x="848.625" y="458" clip-path="url(#clipPath2)" fill="none" width="131.375" rx="4" ry="4" height="61"/>
      <text x="875.7578" xml:space="preserve" y="485.6699" clip-path="url(#clipPath2)" font-family="sans-serif" stroke="none">yang models</text>
      <text x="865.9873" xml:space="preserve" y="499.6387" clip-path="url(#clipPath2)" font-family="sans-serif" stroke="none">schema-context</text>
    </g>
    <g fill="url(#linearGradient1)" text-rendering="geometricPrecision" shape-rendering="geometricPrecision" transform="matrix(1,0,0,1,-584,-173)" stroke="url(#linearGradient1)">
      <path d="M702.5625 741.5417 C663.9167 708.875 702.5625 679.7083 765.9417 700.7083 C765.9417 679.7083 871.0583 679.7083 871.0583 700.7083 C934.4375 679.7083 973.0833 708.875 934.4375 734.5417 C973.0833 767.2083 934.4375 796.375 886.5167 775.375 C871.0583 796.375 765.9417 796.375 781.4 775.375 C702.5625 796.375 663.9167 767.2083 702.5625 741.5417 Z" stroke="none" clip-path="url(#clipPath2)"/>
    </g>
    <g text-rendering="geometricPrecision" stroke-miterlimit="1.45" shape-rendering="geometricPrecision" transform="matrix(1,0,0,1,-584,-173)" stroke-linecap="butt">
      <path fill="none" d="M702.5625 741.5417 C663.9167 708.875 702.5625 679.7083 765.9417 700.7083 C765.9417 679.7083 871.0583 679.7083 871.0583 700.7083 C934.4375 679.7083 973.0833 708.875 934.4375 734.5417 C973.0833 767.2083 934.4375 796.375 886.5167 775.375 C871.0583 796.375 765.9417 796.375 781.4 775.375 C702.5625 796.375 663.9167 767.2083 702.5625 741.5417 Z" clip-path="url(#clipPath2)"/>
      <text x="790.8584" xml:space="preserve" y="728.2272" clip-path="url(#clipPath2)" font-family="sans-serif" stroke="none">Managed</text>
      <text x="794.1338" xml:space="preserve" y="742.196" clip-path="url(#clipPath2)" font-family="sans-serif" stroke="none">network</text>
      <text x="759.3555" xml:space="preserve" y="756.1647" clip-path="url(#clipPath2)" font-family="sans-serif" stroke="none">(OpenFlow devices)</text>
    </g>
    <g text-rendering="geometricPrecision" stroke-miterlimit="1.45" shape-rendering="geometricPrecision" transform="matrix(1,0,0,1,-584,-173)" stroke-linecap="butt">
      <path fill="none" d="M818.5 257.0178 L818.5 351.0096" clip-path="url(#clipPath2)"/>
      <path d="M818.5 249.0178 L813.5 261.0178 L818.5 258.0178 L823.5 261.0178 Z" clip-path="url(#clipPath2)" stroke="none"/>
      <path d="M818.5 359.0096 L823.5 347.0096 L818.5 350.0096 L813.5 347.0096 Z" clip-path="url(#clipPath2)" stroke="none"/>
      <text x="764.9189" xml:space="preserve" y="283.7459" clip-path="url(#clipPath2)" font-family="sans-serif" stroke="none">HTTP / RESTCONF</text>
      <text x="729.3525" xml:space="preserve" y="297.7147" clip-path="url(#clipPath2)" font-family="sans-serif" stroke="none">http://localhost:8888/restconf</text>
      <path fill="none" d="M818.5 625.9979 L818.5 676.9781" clip-path="url(#clipPath2)"/>
      <path d="M818.5 617.9979 L813.5 629.9979 L818.5 626.9979 L823.5 629.9979 Z" clip-path="url(#clipPath2)" stroke="none"/>
      <path d="M818.5 684.9781 L823.5 672.9781 L818.5 675.9781 L813.5 672.9781 Z" clip-path="url(#clipPath2)" stroke="none"/>
    </g>
  </g>
</svg>
