<?xml version="1.0" encoding="UTF-8"?>
<!DOCTYPE svg PUBLIC "-//W3C//DTD SVG 1.1//EN" "http://www.w3.org/Graphics/SVG/1.1/DTD/svg11.dtd">
<!-- Creator: CorelDRAW X6 -->
<svg xmlns="http://www.w3.org/2000/svg" xml:space="preserve" width="709px" height="709px" version="1.1" style="shape-rendering:geometricPrecision; text-rendering:geometricPrecision; image-rendering:optimizeQuality; fill-rule:evenodd; clip-rule:evenodd"
viewBox="0 0 70900000 70900000"
 xmlns:xlink="http://www.w3.org/1999/xlink">
 <defs>
  <style type="text/css">
   <![CDATA[
    .fil3 {fill:black;fill-rule:nonzero}
    .fil1 {fill:url(#id0);fill-rule:nonzero}
    .fil2 {fill:url(#id1);fill-rule:nonzero}
    .fil0 {fill:url(#id2);fill-rule:nonzero}
   ]]>
  </style>
  <linearGradient id="id0" gradientUnits="userSpaceOnUse" x1="1.09624e+007" y1="3.70437e+007" x2="3.7353e+007" y2="3.70437e+007">
   <stop offset="0" style="stop-color:#F9AF00"/>
   <stop offset="0.65098" style="stop-color:#FB6034"/>
   <stop offset="1" style="stop-color:#D83B33"/>
  </linearGradient>
  <linearGradient id="id1" gradientUnits="userSpaceOnUse" xlink:href="#id0" x1="1.6225e+007" y1="2.56984e+007" x2="5.49663e+007" y2="2.56984e+007">
  </linearGradient>
  <linearGradient id="id2" gradientUnits="userSpaceOnUse" xlink:href="#id0" x1="3.38358e+007" y1="1.41637e+007" x2="6.02295e+007" y2="1.41637e+007">
  </linearGradient>
 </defs>
 <g id="Layer_x0020_1">
  <metadata id="CorelCorpID_0Corel-Layer"/>
  <g id="_1051346672">
   <g>
    <g>
     <path class="fil0" d="M43171010 14206706c902675,21270 1619356,844537 2298696,1522459 678159,675323 1499890,1399566 1518796,2301650 52702,2435415 -320823,4954019 1515251,6788084 2534793,2538929 6651838,2538929 9186277,0 2539520,-2538456 2539520,-6650420 0,-9189940 -1841628,-1849545 -4377721,-1482755 -6830270,-1498590 -959159,-7208 -1743667,-863208 -2465193,-1587569 -600641,-600641 -1375933,-1212626 -1394839,-2012497 -63337,-2521677 468176,-5126306 -1432298,-7024063 -2535857,-2536802 -6650538,-2536802 -9187340,0 -2544247,2536802 -2544247,6651484 0,9190294 1834774,1834774 4351369,1460895 6790920,1510170z"/>
     <path class="fil1" d="M13498415 35572539c1839146,1833356 4355742,1465503 6793638,1510997 901257,23279 1622310,840756 2298933,1523287 678040,674850 1498353,1394721 1518796,2298814 50103,2439433 -321768,4957328 1512179,6789502 2537866,2542947 6653492,2538456 9190531,0 2540465,-2534439 2540465,-6651602 0,-9188995 -1844700,-1845054 -4377366,-1487009 -6829679,-1500244 -962586,-5199 -1743904,-866044 -2468384,-1590169 -600641,-595796 -1373215,-1209200 -1396257,-2008361 -60265,-2521559 469594,-5124416 -1427808,-7023472 -2534321,-2534439 -6652074,-2534439 -9191949,0 -2535975,2537038 -2535975,6650066 0,9188640z"/>
     <path class="fil2" d="M25556378 19568282c900548,18552 1619002,840283 2299996,1522459 679222,675323 1498708,1396257 1521278,2296097 4490,321532 4490,643772 1418,967667 -328740,1440334 -163779,2973192 504335,4323364 10281,27769 24342,53411 36395,82126 14298,25760 24342,54475 36868,73263 221326,479875 517452,932217 936944,1345918 36986,38877 77399,70427 115094,105050 36986,41477 71491,83189 106114,122184 413702,409329 864980,709709 1338947,928081 28478,14416 57193,27060 86380,40413 22570,12644 48212,25406 74563,34150 1347455,666815 2874404,830475 4316983,504217 326376,0 650980,0 975348,7090 897830,14771 1618056,838038 2298814,1518796 676622,676622 1499535,1390704 1517260,2297396 50339,2433288 -319168,4959455 1517024,6791866 2534439,2538811 6650538,2538811 9186277,-4136 2539874,-2535502 2539874,-6642503 3663,-9184032 -1847418,-1850963 -4382802,-1488782 -6835351,-1500008 -960813,-8508 -1742368,-868052 -2465193,-1590642 -600641,-601587 -1374869,-1211208 -1395076,-2014151 -5790,-288327 -5790,-581853 -1300,-869116 456714,-1610848 283127,-3356288 -526078,-4858895 -212346,-454115 -501381,-887904 -905393,-1292980 -38404,-37695 -77045,-69246 -116158,-106232 -35805,-40413 -69718,-77636 -106114,-115094 -474203,-476921 -996736,-804242 -1551883,-1028995 -1335520,-650271 -2851362,-806724 -4280706,-483538 -332285,10281 -667169,10281 -1000045,10281 -962586,-6027 -1742604,-867107 -2468265,-1589224 -600523,-600641 -1371797,-1209909 -1393776,-2011551 -62865,-2525340 468649,-5127252 -1433480,-7025127 -2531721,-2535384 -6648766,-2535384 -9185804,0 -2540465,2536802 -2537629,6650538 0,9187340 1837374,1840564 4354087,1466921 6790920,1515960z"/>
    </g>
    <polygon class="fil3" points="6227738,66787091 7033516,66787091 7033516,54783248 6227738,54783248 "/>
    <path id="1" class="fil3" d="M10223544 56213774l1002999 0 0 -1101668 -1002999 0 0 1101668zm98669 10573317l805779 0 0 -8386288 -805779 0 0 8386288z"/>
    <path id="2" class="fil3" d="M17984967 69451040c1233306,0 2318548,-394677 3042083,-1118211 674259,-674259 1068936,-1627982 1068936,-2844626l0 -7087400 -805778 0 0 1677376c-690684,-986692 -1825321,-1874596 -3502578,-1874596 -2022541,0 -4028774,1562163 -4028774,3979381l0 32850c0,2400792 2006234,3946530 4028774,3946530 1660833,0 2779044,-904448 3502578,-1940415l0 1216880c0,2154060 -1364825,3255728 -3288815,3255728 -1233306,0 -2384367,-411102 -3387366,-1183912l-476921 657716c1151062,855054 2450186,1282699 3847861,1282699zm-115094 -4061506c-1726651,0 -3239421,-1315550 -3239421,-3206571l0 -32969c0,-1956722 1479919,-3173602 3239421,-3173602 1743077,0 3469610,1249731 3469610,3190146l0 32850c0,1907446 -1726533,3190146 -3469610,3190146z"/>
    <path id="3" class="fil3" d="M25154493 66787091l805660 0 0 -4850860c0,-1742958 1266274,-2992689 2910563,-2992689 1693801,0 2663949,1134636 2663949,2861170l0 4982379 805779 0 0 -5130324c0,-2006234 -1233306,-3453185 -3354515,-3453185 -1529313,0 -2466611,772810 -3025776,1759384l0 -5179718 -805660 0 0 12003843z"/>
    <path id="4" class="fil3" d="M38030051 66935036c526196,0 937298,-98669 1364825,-295889l0 -756385c-476921,213764 -822204,296008 -1233306,296008 -970267,0 -1677258,-427527 -1677258,-1627864l0 -5410025 2943414 0 0 -740078 -2943414 0 0 -2680256 -805779 0 0 2680256 -1216880 0 0 740078 1216880 0 0 5492150c0,1595132 1052392,2302005 2351517,2302005z"/>
    <path id="5" class="fil3" d="M45347522 65899187l-3486153 -7498384 -937298 0 4028774 8337013c-624865,1463494 -1200455,1973147 -2071934,1973147 -624865,0 -986692,-98551 -1430644,-312433l-279464 707109c559047,246732 1019424,361826 1660714,361826 1200455,0 2055509,-624865 2795469,-2384367l3634098 -8682296 -887904 0 -3025657 7498384z"/>
    <polygon id="6" class="fil3" points="49902256,66787091 50987499,66787091 50987499,65389534 49902256,65389534 "/>
    <path id="7" class="fil3" d="M53881637 56213774l1002999 0 0 -1101668 -1002999 0 0 1101668zm98669 10573317l805779 0 0 -8386288 -805779 0 0 8386288z"/>
    <path id="8" class="fil3" d="M61675910 66984429c2499461,0 4324782,-2038966 4324782,-4390364l0 -32969c0,-2351399 -1808777,-4357514 -4291813,-4357514 -2499461,0 -4324782,2038966 -4324782,4390483l0 32850c0,2351517 1808895,4357514 4291813,4357514zm32969 -756267c-1940415,0 -3453185,-1611557 -3453185,-3634098l0 -32969c0,-1973265 1430526,-3601129 3420216,-3601129 1940415,0 3453303,1611439 3453303,3634098l0 32850c0,1973265 -1430644,3601247 -3420334,3601247z"/>
   </g>
  </g>
 </g>
</svg>
