<?xml version="1.0" standalone="no"?>
<!DOCTYPE svg PUBLIC "-//W3C//DTD SVG 20010904//EN"
 "http://www.w3.org/TR/2001/REC-SVG-20010904/DTD/svg10.dtd">
<svg version="1.0" xmlns="http://www.w3.org/2000/svg"
 width="144.000000pt" height="143.000000pt" viewBox="0 0 144.000000 143.000000"
 preserveAspectRatio="xMidYMid meet">
<metadata>
Created by potrace 1.15, written by Peter Selinger 2001-2017
</metadata>
<g transform="translate(0.000000,143.000000) scale(0.100000,-0.100000)"
fill="#000000" stroke="none">
<path d="M1160 877 c0 -131 3 -188 12 -193 21 -13 122 -8 153 8 34 18 77 62
95 97 21 40 15 134 -11 181 -34 60 -74 81 -169 87 l-80 6 0 -186z"/>
<path d="M871 650 c0 -156 3 -199 14 -214 10 -13 15 -44 15 -89 0 -85 20 -130
72 -164 106 -71 258 -18 298 103 17 50 6 129 -24 174 -33 50 -79 70 -161 70
-75 0 -110 14 -149 60 -23 28 -26 40 -26 108 -1 56 -6 86 -20 112 l-19 35 0
-195z"/>
<path d="M492 194 l3 -189 50 -3 c71 -5 117 12 158 57 82 91 70 223 -26 295
-22 16 -47 22 -108 25 l-79 3 2 -188z"/>
</g>
</svg>
