<?xml version="1.0" encoding="UTF-8"?><svg xmlns="http://www.w3.org/2000/svg" xmlns:xlink="http://www.w3.org/1999/xlink" fill-opacity="1" color-rendering="auto" color-interpolation="auto" text-rendering="auto" stroke="black" stroke-linecap="square" width="370" stroke-miterlimit="10" shape-rendering="auto" stroke-opacity="1" fill="black" stroke-dasharray="none" font-weight="normal" stroke-width="1" height="415" font-family="'Dialog'" font-style="normal" stroke-linejoin="miter" font-size="12px" stroke-dashoffset="0" image-rendering="auto">
  <!--Generated by ySVG 2.5-->
  <defs id="genericDefs"/>
  <g>
    <defs id="defs1">
      <clipPath clipPathUnits="userSpaceOnUse" id="clipPath1">
        <path d="M0 0 L370 0 L370 415 L0 415 L0 0 Z"/>
      </clipPath>
      <clipPath clipPathUnits="userSpaceOnUse" id="clipPath2">
        <path d="M517 202 L887 202 L887 617 L517 617 L517 202 Z"/>
      </clipPath>
    </defs>
    <g fill="white" text-rendering="geometricPrecision" shape-rendering="geometricPrecision" transform="translate(-517,-202)" stroke="white">
      <rect x="517" width="370" height="415" y="202" clip-path="url(#clipPath2)" stroke="none"/>
    </g>
    <g fill="rgb(255,204,0)" text-rendering="geometricPrecision" shape-rendering="geometricPrecision" transform="matrix(1,0,0,1,-517,-202)" stroke="rgb(255,204,0)">
      <rect x="532" y="217" clip-path="url(#clipPath2)" width="339.7083" rx="4" ry="4" height="53" stroke="none"/>
    </g>
    <g text-rendering="geometricPrecision" stroke-miterlimit="1.45" shape-rendering="geometricPrecision" transform="matrix(1,0,0,1,-517,-202)" stroke-linecap="butt">
      <rect x="532" y="217" clip-path="url(#clipPath2)" fill="none" width="339.7083" rx="4" ry="4" height="53"/>
      <text x="615.5417" font-size="16px" y="246.7109" clip-path="url(#clipPath2)" font-family="sans-serif" stroke="none" font-weight="bold" xml:space="preserve">Load Configuration</text>
      <text x="538" font-size="16px" y="246.7109" clip-path="url(#clipPath2)" font-family="sans-serif" stroke="none" font-weight="bold" xml:space="preserve">1.</text>
    </g>
    <g fill="rgb(255,204,0)" text-rendering="geometricPrecision" shape-rendering="geometricPrecision" transform="matrix(1,0,0,1,-517,-202)" stroke="rgb(255,204,0)">
      <rect x="532" y="300" clip-path="url(#clipPath2)" width="339.7083" rx="4" ry="4" height="53" stroke="none"/>
    </g>
    <g text-rendering="geometricPrecision" stroke-miterlimit="1.45" shape-rendering="geometricPrecision" transform="matrix(1,0,0,1,-517,-202)" stroke-linecap="butt">
      <rect x="532" y="300" clip-path="url(#clipPath2)" fill="none" width="339.7083" rx="4" ry="4" height="53"/>
      <text x="602.8307" font-size="16px" y="329.7109" clip-path="url(#clipPath2)" font-family="sans-serif" stroke="none" font-weight="bold" xml:space="preserve">Start LightyController</text>
      <text x="538" font-size="16px" y="329.7109" clip-path="url(#clipPath2)" font-family="sans-serif" stroke="none" font-weight="bold" xml:space="preserve">2.</text>
    </g>
    <g fill="rgb(255,255,153)" text-rendering="geometricPrecision" shape-rendering="geometricPrecision" transform="matrix(1,0,0,1,-517,-202)" stroke="rgb(255,255,153)">
      <rect x="532" y="466" clip-path="url(#clipPath2)" width="339.7083" rx="4" ry="4" height="53" stroke="none"/>
    </g>
    <g text-rendering="geometricPrecision" stroke-miterlimit="1.45" shape-rendering="geometricPrecision" transform="matrix(1,0,0,1,-517,-202)" stroke-linecap="butt">
      <rect x="532" y="466" clip-path="url(#clipPath2)" fill="none" width="339.7083" rx="4" ry="4" height="53"/>
      <text x="582.7526" font-size="16px" y="495.7109" clip-path="url(#clipPath2)" font-family="sans-serif" stroke="none" font-weight="bold" xml:space="preserve">Start North-Bound plugins</text>
      <text x="538" font-size="16px" y="495.7109" clip-path="url(#clipPath2)" font-family="sans-serif" stroke="none" font-weight="bold" xml:space="preserve">4.</text>
    </g>
    <g fill="rgb(255,204,0)" text-rendering="geometricPrecision" shape-rendering="geometricPrecision" transform="matrix(1,0,0,1,-517,-202)" stroke="rgb(255,204,0)">
      <rect x="532" y="383" clip-path="url(#clipPath2)" width="339.7083" rx="4" ry="4" height="53" stroke="none"/>
    </g>
    <g text-rendering="geometricPrecision" stroke-miterlimit="1.45" shape-rendering="geometricPrecision" transform="matrix(1,0,0,1,-517,-202)" stroke-linecap="butt">
      <rect x="532" y="383" clip-path="url(#clipPath2)" fill="none" width="339.7083" rx="4" ry="4" height="53"/>
      <text x="581.9362" font-size="16px" y="412.7109" clip-path="url(#clipPath2)" font-family="sans-serif" stroke="none" font-weight="bold" xml:space="preserve">Start South-Bound plugins</text>
      <text x="538" font-size="16px" y="412.7109" clip-path="url(#clipPath2)" font-family="sans-serif" stroke="none" font-weight="bold" xml:space="preserve">3.</text>
      <rect x="532" y="549" clip-path="url(#clipPath2)" fill="none" width="339.7083" rx="4" ry="4" height="53"/>
      <text x="563.9636" font-size="16px" y="578.7109" clip-path="url(#clipPath2)" font-family="sans-serif" stroke="none" font-weight="bold" xml:space="preserve">Start Application specific code</text>
      <text x="538" font-size="16px" y="578.7109" clip-path="url(#clipPath2)" font-family="sans-serif" stroke="none" font-weight="bold" xml:space="preserve">5.</text>
      <path fill="none" d="M701.8542 269.9644 L701.8542 292.0265" clip-path="url(#clipPath2)"/>
      <path d="M701.8542 300.0265 L706.8542 288.0265 L701.8542 291.0265 L696.8542 288.0265 Z" clip-path="url(#clipPath2)" stroke="none"/>
      <path fill="none" d="M701.8542 352.9644 L701.8542 375.0265" clip-path="url(#clipPath2)"/>
      <path d="M701.8542 383.0265 L706.8542 371.0265 L701.8542 374.0265 L696.8542 371.0265 Z" clip-path="url(#clipPath2)" stroke="none"/>
      <path fill="none" d="M701.8542 435.9644 L701.8542 458.0265" clip-path="url(#clipPath2)"/>
      <path d="M701.8542 466.0265 L706.8542 454.0265 L701.8542 457.0265 L696.8542 454.0265 Z" clip-path="url(#clipPath2)" stroke="none"/>
      <path fill="none" d="M701.8542 518.9644 L701.8542 541.0266" clip-path="url(#clipPath2)"/>
      <path d="M701.8542 549.0266 L706.8542 537.0266 L701.8542 540.0266 L696.8542 537.0266 Z" clip-path="url(#clipPath2)" stroke="none"/>
    </g>
  </g>
</svg>
