<?xml version="1.0" encoding="UTF-8"?><svg xmlns="http://www.w3.org/2000/svg" xmlns:xlink="http://www.w3.org/1999/xlink" fill-opacity="1" color-rendering="auto" color-interpolation="auto" text-rendering="auto" stroke="black" stroke-linecap="square" width="728" stroke-miterlimit="10" shape-rendering="auto" stroke-opacity="1" fill="black" stroke-dasharray="none" font-weight="normal" stroke-width="1" height="639" font-family="'Dialog'" font-style="normal" stroke-linejoin="miter" font-size="12px" stroke-dashoffset="0" image-rendering="auto">
    <!--Generated by ySVG 2.5-->
    <defs id="genericDefs"/>
    <g>
        <defs id="defs1">
            <linearGradient x1="630.4583" gradientUnits="userSpaceOnUse" x2="939.625" y1="679.7083" y2="796.375" id="linearGradient1" spreadMethod="reflect">
                <stop stop-opacity="1" stop-color="rgb(232,238,247)" offset="0%"/>
                <stop stop-opacity="1" stop-color="rgb(183,201,227)" offset="100%"/>
            </linearGradient>
            <clipPath clipPathUnits="userSpaceOnUse" id="clipPath1">
                <path d="M0 0 L728 0 L728 639 L0 639 L0 0 Z"/>
            </clipPath>
            <clipPath clipPathUnits="userSpaceOnUse" id="clipPath2">
                <path d="M584 173 L1312 173 L1312 812 L584 812 L584 173 Z"/>
            </clipPath>
        </defs>
        <g fill="white" text-rendering="geometricPrecision" shape-rendering="geometricPrecision" transform="translate(-584,-173)" stroke="white">
            <rect x="584" width="728" height="639" y="173" clip-path="url(#clipPath2)" stroke="none"/>
        </g>
        <g fill="silver" text-rendering="geometricPrecision" shape-rendering="geometricPrecision" transform="matrix(1,0,0,1,-584,-173)" stroke="silver">
            <rect x="612" y="188" clip-path="url(#clipPath2)" width="141" rx="4" ry="4" height="61" stroke="none"/>
        </g>
        <g text-rendering="geometricPrecision" stroke-miterlimit="1.45" shape-rendering="geometricPrecision" transform="matrix(1,0,0,1,-584,-173)" stroke-linecap="butt">
            <rect x="612" y="188" clip-path="url(#clipPath2)" fill="none" width="141" rx="4" ry="4" height="61"/>
            <text x="631.793" xml:space="preserve" y="222.6543" clip-path="url(#clipPath2)" font-family="sans-serif" stroke="none">Cient application</text>
            <rect x="599" y="313" clip-path="url(#clipPath2)" fill="none" width="439" rx="4" ry="4" height="324.5833"/>
            <text x="605" xml:space="preserve" y="330.1387" clip-path="url(#clipPath2)" font-family="sans-serif" stroke="none">lighty.io SDN controller</text>
        </g>
        <g fill="rgb(255,153,0)" text-rendering="geometricPrecision" shape-rendering="geometricPrecision" transform="matrix(1,0,0,1,-584,-173)" stroke="rgb(255,153,0)">
            <rect x="612" y="359" clip-path="url(#clipPath2)" width="141" rx="4" ry="4" height="61" stroke="none"/>
        </g>
        <g text-rendering="geometricPrecision" stroke-miterlimit="1.45" shape-rendering="geometricPrecision" transform="matrix(1,0,0,1,-584,-173)" stroke-linecap="butt">
            <rect x="612" y="359" clip-path="url(#clipPath2)" fill="none" width="141" rx="4" ry="4" height="61"/>
            <text x="648.3076" xml:space="preserve" y="379.6855" clip-path="url(#clipPath2)" font-family="sans-serif" stroke="none">RESTCONF </text>
      <text x="643.4385" xml:space="preserve" y="393.6543" clip-path="url(#clipPath2)" font-family="sans-serif" stroke="none">north-bound </text>
      <text x="663.9434" xml:space="preserve" y="407.623" clip-path="url(#clipPath2)" font-family="sans-serif" stroke="none">plugin</text>
        </g>
        <g fill="rgb(255,153,0)" text-rendering="geometricPrecision" shape-rendering="geometricPrecision" transform="matrix(1,0,0,1,-584,-173)" stroke="rgb(255,153,0)">
            <rect x="612" y="420" clip-path="url(#clipPath2)" width="413" rx="4" ry="4" height="137" stroke="none"/>
        </g>
        <g text-rendering="geometricPrecision" stroke-miterlimit="1.45" shape-rendering="geometricPrecision" transform="matrix(1,0,0,1,-584,-173)" stroke-linecap="butt">
            <rect x="612" y="420" clip-path="url(#clipPath2)" fill="none" width="413" rx="4" ry="4" height="137"/>
            <text x="637.7878" xml:space="preserve" y="464.7168" clip-path="url(#clipPath2)" font-family="sans-serif" stroke="none">lighty.io core</text>
      <text x="653.6989" xml:space="preserve" y="478.6855" clip-path="url(#clipPath2)" font-family="sans-serif" stroke="none">MD-SAL</text>
      <text x="648.1618" xml:space="preserve" y="492.6543" clip-path="url(#clipPath2)" font-family="sans-serif" stroke="none">controller</text>
      <text x="647.5905" xml:space="preserve" y="506.623" clip-path="url(#clipPath2)" font-family="sans-serif" stroke="none">yangtools</text>
      <text x="647.2331" xml:space="preserve" y="520.5918" clip-path="url(#clipPath2)" font-family="sans-serif" stroke="none">clustering</text>
        </g>
        <g fill="rgb(255,153,0)" text-rendering="geometricPrecision" shape-rendering="geometricPrecision" transform="matrix(1,0,0,1,-584,-173)" stroke="rgb(255,153,0)">
            <rect x="612" y="557" clip-path="url(#clipPath2)" width="141" rx="4" ry="4" height="61" stroke="none"/>
        </g>
        <g text-rendering="geometricPrecision" stroke-miterlimit="1.45" shape-rendering="geometricPrecision" transform="matrix(1,0,0,1,-584,-173)" stroke-linecap="butt">
            <rect x="612" y="557" clip-path="url(#clipPath2)" fill="none" width="141" rx="4" ry="4" height="61"/>
            <text x="653.7041" xml:space="preserve" y="577.6855" clip-path="url(#clipPath2)" font-family="sans-serif" stroke="none">NETCONF</text>
      <text x="642.7793" xml:space="preserve" y="591.6543" clip-path="url(#clipPath2)" font-family="sans-serif" stroke="none">south-bound </text>
      <text x="663.9434" xml:space="preserve" y="605.623" clip-path="url(#clipPath2)" font-family="sans-serif" stroke="none">plugin</text>
        </g>
        <g fill="rgb(153,204,0)" text-rendering="geometricPrecision" shape-rendering="geometricPrecision" transform="matrix(1,0,0,1,-584,-173)" stroke="rgb(153,204,0)">
            <rect x="753" y="557" clip-path="url(#clipPath2)" width="272" rx="4" ry="4" height="61" stroke="none"/>
        </g>
        <g text-rendering="geometricPrecision" stroke-miterlimit="1.45" shape-rendering="geometricPrecision" transform="matrix(1,0,0,1,-584,-173)" stroke-linecap="butt">
            <rect x="753" y="557" clip-path="url(#clipPath2)" fill="none" width="272" rx="4" ry="4" height="61"/>
            <text x="855.4756" xml:space="preserve" y="577.6855" clip-path="url(#clipPath2)" font-family="sans-serif" stroke="none">Application</text>
      <text x="849.2793" xml:space="preserve" y="591.6543" clip-path="url(#clipPath2)" font-family="sans-serif" stroke="none">south-bound </text>
      <text x="870.4434" xml:space="preserve" y="605.623" clip-path="url(#clipPath2)" font-family="sans-serif" stroke="none">plugin</text>
        </g>
        <g fill="rgb(153,204,0)" text-rendering="geometricPrecision" shape-rendering="geometricPrecision" transform="matrix(1,0,0,1,-584,-173)" stroke="rgb(153,204,0)">
            <rect x="753" y="359" clip-path="url(#clipPath2)" width="272" rx="4" ry="4" height="61" stroke="none"/>
        </g>
        <g text-rendering="geometricPrecision" stroke-miterlimit="1.45" shape-rendering="geometricPrecision" transform="matrix(1,0,0,1,-584,-173)" stroke-linecap="butt">
            <rect x="753" y="359" clip-path="url(#clipPath2)" fill="none" width="272" rx="4" ry="4" height="61"/>
            <text x="853.5684" xml:space="preserve" y="379.6855" clip-path="url(#clipPath2)" font-family="sans-serif" stroke="none">Application </text>
      <text x="849.9385" xml:space="preserve" y="393.6543" clip-path="url(#clipPath2)" font-family="sans-serif" stroke="none">north-bound </text>
      <text x="870.4434" xml:space="preserve" y="407.623" clip-path="url(#clipPath2)" font-family="sans-serif" stroke="none">plugin</text>
        </g>
        <g fill="silver" text-rendering="geometricPrecision" shape-rendering="geometricPrecision" transform="matrix(1,0,0,1,-584,-173)" stroke="silver">
            <rect x="818.5" y="188" clip-path="url(#clipPath2)" width="141" rx="4" ry="4" height="61" stroke="none"/>
        </g>
        <g text-rendering="geometricPrecision" stroke-miterlimit="1.45" shape-rendering="geometricPrecision" transform="matrix(1,0,0,1,-584,-173)" stroke-linecap="butt">
            <rect x="818.5" y="188" clip-path="url(#clipPath2)" fill="none" width="141" rx="4" ry="4" height="61"/>
            <text x="838.293" xml:space="preserve" y="222.6543" clip-path="url(#clipPath2)" font-family="sans-serif" stroke="none">Cient application</text>
        </g>
        <g fill="rgb(153,204,255)" text-rendering="geometricPrecision" shape-rendering="geometricPrecision" transform="matrix(1,0,0,1,-584,-173)" stroke="rgb(153,204,255)">
            <rect x="848.625" y="458" clip-path="url(#clipPath2)" width="131.375" rx="4" ry="4" height="61" stroke="none"/>
        </g>
        <g text-rendering="geometricPrecision" stroke-miterlimit="1.45" shape-rendering="geometricPrecision" transform="matrix(1,0,0,1,-584,-173)" stroke-linecap="butt">
            <rect x="848.625" y="458" clip-path="url(#clipPath2)" fill="none" width="131.375" rx="4" ry="4" height="61"/>
            <text x="875.7578" xml:space="preserve" y="485.6699" clip-path="url(#clipPath2)" font-family="sans-serif" stroke="none">yang models</text>
      <text x="865.9873" xml:space="preserve" y="499.6387" clip-path="url(#clipPath2)" font-family="sans-serif" stroke="none">schema-context</text>
        </g>
        <g fill="rgb(255,153,0)" text-rendering="geometricPrecision" shape-rendering="geometricPrecision" transform="matrix(1,0,0,1,-584,-173)" stroke="rgb(255,153,0)">
            <rect x="1081.7083" y="188" clip-path="url(#clipPath2)" width="30" rx="4" ry="4" height="30" stroke="none"/>
        </g>
        <g text-rendering="geometricPrecision" stroke-miterlimit="1.45" shape-rendering="geometricPrecision" transform="matrix(1,0,0,1,-584,-173)" stroke-linecap="butt">
            <rect x="1081.7083" y="188" clip-path="url(#clipPath2)" fill="none" width="30" rx="4" ry="4" height="30"/>
            <text x="1117.7084" xml:space="preserve" y="209.1699" clip-path="url(#clipPath2)" font-family="sans-serif" stroke="none">lighty.io components</text>
        </g>
        <g fill="rgb(153,204,0)" text-rendering="geometricPrecision" shape-rendering="geometricPrecision" transform="matrix(1,0,0,1,-584,-173)" stroke="rgb(153,204,0)">
            <rect x="1081.7083" y="225.5" clip-path="url(#clipPath2)" width="30" rx="4" ry="4" height="30" stroke="none"/>
        </g>
        <g text-rendering="geometricPrecision" stroke-miterlimit="1.45" shape-rendering="geometricPrecision" transform="matrix(1,0,0,1,-584,-173)" stroke-linecap="butt">
            <rect x="1081.7083" y="225.5" clip-path="url(#clipPath2)" fill="none" width="30" rx="4" ry="4" height="30"/>
            <text x="1117.7084" xml:space="preserve" y="244.6543" clip-path="url(#clipPath2)" font-family="sans-serif" stroke="none">custom application </text>
        </g>
        <g fill="silver" text-rendering="geometricPrecision" shape-rendering="geometricPrecision" transform="matrix(1,0,0,1,-584,-173)" stroke="silver">
            <rect x="1081.7083" y="300.5" clip-path="url(#clipPath2)" width="30" rx="4" ry="4" height="30" stroke="none"/>
        </g>
        <g text-rendering="geometricPrecision" stroke-miterlimit="1.45" shape-rendering="geometricPrecision" transform="matrix(1,0,0,1,-584,-173)" stroke-linecap="butt">
            <rect x="1081.7083" y="300.5" clip-path="url(#clipPath2)" fill="none" width="30" rx="4" ry="4" height="30"/>
            <text x="1117.7084" xml:space="preserve" y="319.6543" clip-path="url(#clipPath2)" font-family="sans-serif" stroke="none">overlay application layer</text>
        </g>
        <g fill="rgb(153,204,255)" text-rendering="geometricPrecision" shape-rendering="geometricPrecision" transform="matrix(1,0,0,1,-584,-173)" stroke="rgb(153,204,255)">
            <rect x="1081.7083" y="263" clip-path="url(#clipPath2)" width="30" rx="4" ry="4" height="30" stroke="none"/>
        </g>
        <g text-rendering="geometricPrecision" stroke-miterlimit="1.45" shape-rendering="geometricPrecision" transform="matrix(1,0,0,1,-584,-173)" stroke-linecap="butt">
            <rect x="1081.7083" y="263" clip-path="url(#clipPath2)" fill="none" width="30" rx="4" ry="4" height="30"/>
            <text x="1117.7084" xml:space="preserve" y="282.1543" clip-path="url(#clipPath2)" font-family="sans-serif" stroke="none">custom yang models</text>
        </g>
        <g fill="url(#linearGradient1)" text-rendering="geometricPrecision" shape-rendering="geometricPrecision" transform="matrix(1,0,0,1,-584,-173)" stroke="url(#linearGradient1)">
            <path d="M669.1042 741.5417 C630.4583 708.875 669.1042 679.7083 732.4833 700.7083 C732.4833 679.7083 837.6 679.7083 837.6 700.7083 C900.9792 679.7083 939.625 708.875 900.9792 734.5417 C939.625 767.2083 900.9792 796.375 853.0583 775.375 C837.6 796.375 732.4833 796.375 747.9417 775.375 C669.1042 796.375 630.4583 767.2083 669.1042 741.5417 Z" stroke="none" clip-path="url(#clipPath2)"/>
        </g>
        <g text-rendering="geometricPrecision" stroke-miterlimit="1.45" shape-rendering="geometricPrecision" transform="matrix(1,0,0,1,-584,-173)" stroke-linecap="butt">
            <path fill="none" d="M669.1042 741.5417 C630.4583 708.875 669.1042 679.7083 732.4833 700.7083 C732.4833 679.7083 837.6 679.7083 837.6 700.7083 C900.9792 679.7083 939.625 708.875 900.9792 734.5417 C939.625 767.2083 900.9792 796.375 853.0583 775.375 C837.6 796.375 732.4833 796.375 747.9417 775.375 C669.1042 796.375 630.4583 767.2083 669.1042 741.5417 Z" clip-path="url(#clipPath2)"/>
            <text x="757.4001" xml:space="preserve" y="735.2116" clip-path="url(#clipPath2)" font-family="sans-serif" stroke="none">Managed</text>
      <text x="760.6755" xml:space="preserve" y="749.1804" clip-path="url(#clipPath2)" font-family="sans-serif" stroke="none">network</text>
        </g>
        <g text-rendering="geometricPrecision" stroke-miterlimit="1.45" shape-rendering="geometricPrecision" transform="matrix(1,0,0,1,-584,-173)" stroke-linecap="butt">
            <path fill="none" d="M682.5 257.0178 L682.5 351.0096" clip-path="url(#clipPath2)"/>
            <path d="M682.5 249.0178 L677.5 261.0178 L682.5 258.0178 L687.5 261.0178 Z" clip-path="url(#clipPath2)" stroke="none"/>
            <path d="M682.5 359.0096 L687.5 347.0096 L682.5 350.0096 L677.5 347.0096 Z" clip-path="url(#clipPath2)" stroke="none"/>
            <text x="628.9189" xml:space="preserve" y="287.1543" clip-path="url(#clipPath2)" font-family="sans-serif" stroke="none">HTTP / RESTCONF</text>
            <path fill="none" d="M889 257.0178 L889 351.0096" clip-path="url(#clipPath2)"/>
            <path d="M889 249.0178 L884 261.0178 L889 258.0178 L894 261.0178 Z" clip-path="url(#clipPath2)" stroke="none"/>
            <path d="M889 359.0096 L894 347.0096 L889 350.0096 L884 347.0096 Z" clip-path="url(#clipPath2)" stroke="none"/>
            <text x="855.4756" xml:space="preserve" y="285.1699" clip-path="url(#clipPath2)" font-family="sans-serif" stroke="none">Application</text>
      <text x="864.3936" xml:space="preserve" y="299.1387" clip-path="url(#clipPath2)" font-family="sans-serif" stroke="none">protocol</text>
            <path fill="none" d="M682.5 626.0066 L682.5 686.2053" clip-path="url(#clipPath2)"/>
            <path d="M682.5 618.0066 L677.5 630.0066 L682.5 627.0066 L687.5 630.0066 Z" clip-path="url(#clipPath2)" stroke="none"/>
            <path d="M682.5 694.2053 L687.5 682.2053 L682.5 685.2053 L677.5 682.2053 Z" clip-path="url(#clipPath2)" stroke="none"/>
            <path fill="none" d="M889 625.9775 L889 686.1608" clip-path="url(#clipPath2)"/>
            <path d="M889 617.9775 L884 629.9775 L889 626.9775 L894 629.9775 Z" clip-path="url(#clipPath2)" stroke="none"/>
            <path d="M889 694.1608 L894 682.1608 L889 685.1608 L884 682.1608 Z" clip-path="url(#clipPath2)" stroke="none"/>
        </g>
    </g>
</svg>
